<svg id="Capa_1" enable-background="new 0 0 505.945 505.945" height="512" viewBox="0 0 505.945 505.945" width="512" xmlns="http://www.w3.org/2000/svg"><g><g><path d="m483.617 213.196c-18.628-114.524-113.616-197.586-224.49-205.658-11.214-.816-18.117 12.129-10.984 20.821 28.436 34.651 45.348 79.12 44.88 127.551-1.053 109.097-91.22 197.34-200.316 196.149-19.812-.216-38.926-3.343-56.935-8.97-10.783-3.369-20.262 7.811-15.284 17.952 46.428 94.573 150.659 151.941 260.037 134.15 133.954-21.789 224.881-148.042 203.092-281.995z" fill="#fee97d"/><path d="m46.259 402.469c20.584 5.069 42.18 7.877 64.455 8.1 142.446 1.425 260.177-104.065 261.553-234.483.61-57.896-61.629-156.937-62.11-159.3-16.457-4.832-33.545-7.974-51.03-9.247-11.214-.816-18.117 12.129-10.984 20.821 28.436 34.651 45.348 79.12 44.88 127.551-1.053 109.097-91.22 197.34-200.316 196.149-19.813-.216-38.926-3.343-56.935-8.97-10.783-3.369-20.262 7.811-15.284 17.952 7.248 14.763 15.906 28.62 25.771 41.427z" fill="#fee45a"/><g fill="#fee97d"><path d="m206.53 213.969c-8.227-5.336-14.99-12-20.192-20.079-2.424-3.765-7.926-3.83-10.523-.182-5.27 7.404-12.027 13.935-20.101 19.693-3.717 2.651-3.561 8.299.309 10.722 8.052 5.043 14.799 11.572 20.057 19.794 2.423 3.789 7.98 3.803 10.47.058 5.09-7.654 11.925-13.973 20.035-19.316 3.874-2.55 3.835-8.167-.055-10.69z"/><path d="m83.773 94.84c-8.227-5.336-14.99-12-20.192-20.079-2.424-3.765-7.926-3.83-10.523-.182-5.27 7.404-12.027 13.935-20.101 19.693-3.717 2.651-3.561 8.299.309 10.722 8.052 5.043 14.799 11.572 20.057 19.794 2.423 3.789 7.98 3.803 10.47.058 5.09-7.654 11.925-13.973 20.035-19.316 3.874-2.55 3.836-8.166-.055-10.69z"/></g></g><g><path d="m171.562 328.379c-3.788 1.677-5.499 6.106-3.822 9.894 1.24 2.801 3.984 4.466 6.862 4.466 1.015 0 2.045-.207 3.032-.644 73.875-32.707 122.111-105.76 122.889-186.112.464-48.195-16.079-95.209-46.583-132.381-1.945-2.37-1.056-4.749-.582-5.662.387-.747 1.903-3.168 5.224-2.922 51.946 3.782 102.095 25.083 141.21 59.98 3.093 2.759 7.833 2.488 10.59-.603 2.758-3.091 2.487-7.832-.604-10.59-41.57-37.087-94.879-59.727-150.106-63.748-8.289-.61-15.808 3.604-19.632 10.98-3.775 7.286-2.893 15.746 2.305 22.079 28.275 34.456 43.609 78.039 43.179 122.721-.721 74.484-45.453 142.211-113.962 172.542z"/><path d="m491.02 211.992c-7.528-46.283-27.63-89.41-58.132-124.719-2.708-3.136-7.444-3.479-10.579-.773-3.134 2.708-3.48 7.444-.772 10.579 28.688 33.209 47.596 73.778 54.679 117.321 7.417 45.601 1.541 91.951-16.994 134.038-18.062 41.011-47.133 75.999-84.072 101.18-3.423 2.333-4.306 6.999-1.973 10.422 1.452 2.13 3.807 3.276 6.204 3.276 1.455 0 2.925-.422 4.218-1.303 39.261-26.764 70.157-63.946 89.351-107.528 19.706-44.749 25.955-94.022 18.07-142.493z"/><path d="m348.423 465.383c-21.687 10.936-44.937 18.474-69.103 22.405-51.436 8.368-102.938.008-148.93-24.174-44.497-23.395-81.137-60.997-103.17-105.878-1.462-2.978.188-5.267.729-5.898.679-.791 2.583-2.529 5.585-1.59 19.067 5.958 38.947 9.091 59.09 9.311 17.617.196 35.148-1.878 52.151-6.153 4.017-1.01 6.454-5.085 5.444-9.102-1.01-4.018-5.084-6.455-9.103-5.445-15.755 3.961-32.03 5.877-48.329 5.701-18.679-.205-37.109-3.108-54.779-8.629-7.871-2.459-16.09-.105-21.448 6.146-5.388 6.286-6.463 14.819-2.805 22.27 23.423 47.713 62.365 87.682 109.654 112.545 36.586 19.235 76.443 29.054 117.099 29.054 13.681 0 27.454-1.112 41.22-3.351 25.68-4.177 50.392-12.19 73.448-23.817 3.698-1.865 5.185-6.375 3.319-10.074-1.863-3.7-6.374-5.185-10.072-3.321z"/><path d="m152.042 230.481c7.241 4.535 13.203 10.416 17.721 17.478 2.501 3.911 6.774 6.271 11.431 6.313h.127c4.63 0 8.913-2.29 11.478-6.144 4.3-6.469 10.16-12.097 17.916-17.206 3.934-2.592 6.272-6.94 6.256-11.631-.017-4.702-2.394-9.043-6.358-11.615-7.378-4.785-13.423-10.79-17.968-17.846-2.474-3.843-6.689-6.201-11.276-6.308-4.595-.091-8.982 2.074-11.662 5.836-4.656 6.542-10.828 12.576-18.345 17.937-3.792 2.705-5.973 7.111-5.833 11.788.139 4.669 2.573 8.93 6.513 11.398zm28.928-31.11c5.28 7.796 12.025 14.501 20.087 19.967-8.205 5.604-14.676 11.829-19.702 18.954-5.298-7.821-12.028-14.432-20.041-19.684 7.835-5.755 14.437-12.216 19.656-19.237z"/><path d="m29.286 111.352c7.24 4.534 13.201 10.415 17.721 17.48 2.502 3.911 6.776 6.271 11.434 6.312h.124c4.631 0 8.913-2.29 11.476-6.144 4.303-6.47 10.163-12.098 17.916-17.207 3.935-2.592 6.273-6.94 6.257-11.63-.017-4.702-2.394-9.044-6.357-11.616-.001 0-.001 0-.001 0-7.379-4.786-13.424-10.79-17.967-17.847-2.475-3.843-6.691-6.2-11.278-6.307-4.613-.095-8.982 2.075-11.661 5.837-4.655 6.541-10.827 12.575-18.345 17.937-3.792 2.705-5.973 7.111-5.832 11.788.138 4.67 2.573 8.93 6.513 11.397zm28.927-31.11c5.279 7.795 12.025 14.5 20.087 19.968-8.202 5.602-14.674 11.828-19.702 18.954-5.299-7.823-12.028-14.433-20.041-19.685 7.837-5.756 14.439-12.217 19.656-19.237z"/><path d="m159.887 103.777h6.536v6.537c0 4.142 3.357 7.5 7.5 7.5s7.5-3.358 7.5-7.5v-6.537h6.537c4.143 0 7.5-3.358 7.5-7.5s-3.357-7.5-7.5-7.5h-6.537v-6.537c0-4.142-3.357-7.5-7.5-7.5s-7.5 3.358-7.5 7.5v6.537h-6.536c-4.143 0-7.5 3.358-7.5 7.5s3.358 7.5 7.5 7.5z"/><path d="m62.858 256.579c4.143 0 7.5-3.358 7.5-7.5v-6.537h6.536c4.143 0 7.5-3.358 7.5-7.5s-3.357-7.5-7.5-7.5h-6.536v-6.537c0-4.142-3.357-7.5-7.5-7.5s-7.5 3.358-7.5 7.5v6.537h-6.537c-4.143 0-7.5 3.358-7.5 7.5s3.357 7.5 7.5 7.5h6.537v6.537c0 4.142 3.357 7.5 7.5 7.5z"/></g></g></svg>